<?xml version="1.0" encoding="utf-8"?>
<!-- Generator: Adobe Illustrator 16.0.0, SVG Export Plug-In . SVG Version: 6.00 Build 0)  -->
<!DOCTYPE svg PUBLIC "-//W3C//DTD SVG 1.1//EN" "http://www.w3.org/Graphics/SVG/1.1/DTD/svg11.dtd">
<svg version="1.1" id="图层_1" xmlns="http://www.w3.org/2000/svg" xmlns:xlink="http://www.w3.org/1999/xlink" x="0px" y="0px"
	 width="15px" height="19px" viewBox="0 0 15 19" enable-background="new 0 0 15 19" xml:space="preserve">
<path fill-rule="evenodd" clip-rule="evenodd" fill="#FF7E16" d="M15.001,2.534v2.537h-1.275c0.017,0.202,0.025,0.408,0.025,0.615
	V15.83c0,1.669-0.8,3.17-2.501,3.17h-7.5C2.05,19,1.25,17.499,1.25,15.83V5.686c0-0.207,0.016-0.411,0.038-0.615H0V2.536l3.75-0.002
	V2.045C3.75,0.917,4.773,0,6.036,0h2.928c1.265,0,2.286,0.917,2.286,2.045v0.47L15.001,2.534z M5,2.045
	c0-0.422,0.475-0.778,1.036-0.778h2.928c0.563,0,1.037,0.356,1.037,0.778v0.489H5V2.045z M12.502,5.686V15.83
	c0,0.973-0.24,1.903-1.252,1.903h-7.5c-1.011,0-1.25-0.931-1.25-1.903V5.686c0-0.211,0.014-0.416,0.042-0.615h9.917
	C12.486,5.27,12.502,5.475,12.502,5.686z"/>
<g>
	<g>
		<path fill-rule="evenodd" clip-rule="evenodd" fill="#FF7E16" d="M4.186,15.725h1.105V6.988H4.186V15.725z M6.948,15.725h1.105
			V6.988H6.948V15.725z M9.711,6.988v8.737h1.104V6.988H9.711z"/>
	</g>
</g>
</svg>
